Patient4_TMGait_0pt3_03_left_30_GRF.mot
version=1
nRows=58
nColumns=19
inDegrees=no
endheader
time	F1x	F1y	F1z	M1x	M1y	M1z	F2x	F2y	F2z	M2x	M2y	M2z	EC1x	EC1y	EC1z	EC2x	EC2y	EC2z
53.16	2.1134	14.7915	2.4874	-5.6956	-2.9012	15.197	-13.1469	760.5768	-53.0615	253.7921	57.392	703.3558	-0.0592	0.0182	-0.0073	-0.0462	0.0165	0.9585
53.1788	0.81376	11.4555	1.9952	-4.3986	-2.4753	11.5481	-12.3024	771.5592	-53.5251	257.3533	57.1318	711.269	-0.0592	0.0182	-0.0073	-0.0462	0.0165	0.9585
53.1976	-0.058883	8.2146	1.4538	-3.1458	-1.919	8.1201	-11.9214	785.343	-54.3644	261.7798	57.2794	721.58	-0.0592	0.0182	-0.0073	-0.0462	0.0165	0.9585
53.2164	-0.54152	5.4543	0.95036	-2.084	-1.3463	5.2751	-12.1287	801.0934	-55.5506	266.7907	57.8517	733.6258	-0.0592	0.0182	-0.0073	-0.0462	0.0165	0.9585
53.2351	-0.7459	3.3472	0.54357	-1.2784	-0.84968	3.1549	-12.8248	817.7692	-56.9258	272.0588	58.6758	746.4531	-0.0592	0.0182	-0.0073	-0.0462	0.0165	0.9585
53.2539	-0.77617	1.8814	0.24791	-0.72203	-0.46718	1.722	-13.7091	834.3334	-58.2577	277.2747	59.4478	759.0283	-0.0592	0.0182	-0.0073	-0.0462	0.0165	0.9585
53.2727	-0.71865	0.94646	0.052067	-0.36898	-0.20224	0.84084	-14.3786	849.6892	-59.3069	282.1112	59.8309	770.23	-0.0592	0.0182	-0.0073	-0.0462	0.0165	0.9585
53.2915	-0.63537	0.3836	-0.065263	-0.15563	-0.041129	0.33078	-14.4388	862.5646	-59.8695	286.1742	59.5334	778.8053	-0.0592	0.0182	-0.0073	-0.0462	0.0165	0.9585
53.3103	-0.56544	0.015697	-0.12612	-0.013991	0.036279	0.0058555	-13.612	871.5224	-59.8078	289.0022	58.3701	783.4223	-0.0592	0.0182	-0.0073	-0.0462	0.0165	0.9585
53.3291	-0.53286	-0.32944	-0.14956	0.12026	0.049837	-0.30479	-11.8148	875.1406	-59.0689	290.1249	56.2992	782.849	-0.0592	0.0182	-0.0073	-0.0462	0.0165	0.9585
53.3479	-0.54963	-0.80603	-0.15296	0.3056	0.021951	-0.74858	-9.1495	872.3183	-57.6865	289.1685	53.4166	776.2113	-0.0592	0.0182	-0.0073	-0.0462	0.0165	0.9585
53.3666	-0.61475	-1.5436	-0.15442	0.59319	-0.020729	-1.4503	-5.8241	862.6131	-55.759	285.9749	49.9039	763.2536	-0.0592	0.0182	-0.0073	-0.0462	0.0165	0.9585
53.3854	-0.7148	-2.6268	-0.17428	1.0189	-0.049906	-2.5022	-2.0661	846.4364	-53.4261	280.6707	45.9739	744.4675	-0.0592	0.0182	-0.0073	-0.0462	0.0165	0.9585
53.4042	-0.82424	-4.069	-0.23058	1.5891	-0.040719	-3.9276	1.9215	825.0012	-50.8605	273.6506	41.8504	721.0259	-0.0592	0.0182	-0.0073	-0.0462	0.0165	0.9585
53.423	-0.89977	-5.7727	-0.33517	2.2636	0.032444	-5.63	5.9651	800.0894	-48.2621	265.5007	37.7614	694.5651	-0.0592	0.0182	-0.0073	-0.0462	0.0165	0.9585
53.4418	-0.87725	-7.4751	-0.49207	2.9364	0.19677	-7.3546	9.9365	773.7486	-45.8216	256.8993	33.9066	666.9075	-0.0592	0.0182	-0.0073	-0.0462	0.0165	0.9585
53.4606	-0.66886	-8.6833	-0.69579	3.4123	0.48161	-8.6319	13.7602	748.0033	-43.6829	248.5178	30.4259	639.8153	-0.0592	0.0182	-0.0073	-0.0462	0.0165	0.9585
53.4794	-0.16683	-8.6227	-0.92412	3.3816	0.90799	-8.7154	17.3963	724.5729	-41.9255	240.9281	27.3888	614.7653	-0.0592	0.0182	-0.0073	-0.0462	0.0165	0.9585
53.4981	0.73969	-6.2029	-1.1324	2.4057	1.4796	-6.5331	20.8247	704.6306	-40.5706	234.5204	24.8056	592.7535	-0.0592	0.0182	-0.0073	-0.0462	0.0165	0.9585
53.5169	2.1496	-0.01355	-1.2443	-0.079336	2.1644	-0.69655	24.0242	688.6462	-39.5991	229.446	22.6535	574.1791	-0.0592	0.0182	-0.0073	-0.0462	0.0165	0.9585
53.5357	4.1199	11.5768	-1.1467	-4.7221	2.8748	10.4119	26.955	676.34	-38.971	225.5985	20.8968	558.8318	-0.0592	0.0182	-0.0073	-0.0462	0.0165	0.9585
53.5545	6.6146	30.1785	-0.68848	-12.1592	3.4441	28.4076	29.5662	666.7295	-38.6298	222.6278	19.4906	545.9431	-0.0592	0.0182	-0.0073	-0.0462	0.0165	0.9585
53.5733	9.4019	56.974	0.3166	-22.852	3.5869	54.5087	31.7833	658.228	-38.4856	219.9756	18.3743	534.2834	-0.0592	0.0182	-0.0073	-0.0462	0.0165	0.9585
53.5921	11.8529	92.1497	2.0528	-36.8578	2.8604	88.9846	33.4876	648.8427	-38.4149	216.944	17.4843	522.3364	-0.0592	0.0182	-0.0073	-0.0462	0.0165	0.9585
53.6109	12.8008	134.2536	4.6525	-53.5764	0.66231	130.5416	34.512	636.5406	-38.2712	212.8258	16.7667	508.5878	-0.0592	0.0182	-0.0073	-0.0462	0.0165	0.9585
53.6296	11.3781	180.3087	8.1675	-71.7963	-3.4068	176.4164	34.6713	619.7451	-37.9062	207.0795	16.1811	491.8971	-0.0592	0.0182	-0.0073	-0.0462	0.0165	0.9585
53.6484	7.7496	226.5535	12.4451	-90.0053	-9.138	222.9915	33.8301	597.7293	-37.2068	199.4677	15.7038	471.7794	-0.0592	0.0182	-0.0073	-0.0462	0.0165	0.9585
53.6672	2.638	269.3135	16.9717	-106.7687	-15.7315	266.5989	32.0009	570.7286	-36.1106	190.0979	15.3006	448.4365	-0.0592	0.0182	-0.0073	-0.0462	0.0165	0.9585
53.686	-3.1231	306.5313	20.9656	-121.3244	-22.0612	305.1062	29.4017	539.8041	-34.6281	179.3659	14.9183	422.633	-0.0592	0.0182	-0.0073	-0.0462	0.0165	0.9585
53.7048	-8.9071	338.2078	23.9448	-133.7161	-27.3944	338.4072	26.3837	506.3387	-32.8475	167.7755	14.5093	395.3268	-0.0592	0.0182	-0.0073	-0.0462	0.0165	0.9585
53.7236	-14.2545	365.4651	25.8183	-144.4059	-31.4579	367.4855	23.3265	471.5512	-30.8688	155.7711	14.0196	367.3222	-0.0592	0.0182	-0.0073	-0.0462	0.0165	0.9585
53.7424	-18.8158	389.6667	26.8054	-153.9204	-34.3279	393.5399	20.5327	436.4237	-28.7607	143.7115	13.3916	339.2552	-0.0592	0.0182	-0.0073	-0.0462	0.0165	0.9585
53.7611	-22.3598	411.9762	27.2856	-162.6853	-36.2837	417.5714	18.1525	401.7814	-26.5802	131.8919	12.6071	311.6826	-0.0592	0.0182	-0.0073	-0.0462	0.0165	0.9585
53.7799	-24.8395	433.1337	27.6111	-170.9572	-37.6483	440.1927	16.1969	368.3022	-24.3804	120.5467	11.6922	285.089	-0.0592	0.0182	-0.0073	-0.0462	0.0165	0.9585
53.7987	-26.3574	453.5333	27.9765	-178.8696	-38.6476	461.714	14.61	336.495	-22.1972	109.8474	10.6859	259.851	-0.0592	0.0182	-0.0073	-0.0462	0.0165	0.9585
53.8175	-27.0757	473.4567	28.4354	-186.5264	-39.3938	482.3653	13.3389	306.7235	-20.0383	99.9131	9.6104	236.2483	-0.0592	0.0182	-0.0073	-0.0462	0.0165	0.9585
53.8363	-27.187	493.1092	29.0094	-194.0083	-39.9815	502.3304	12.3633	279.2316	-17.9002	90.818	8.4729	214.4769	-0.0592	0.0182	-0.0073	-0.0462	0.0165	0.9585
53.8551	-26.8813	512.5811	29.7293	-201.3546	-40.5138	521.7003	11.677	254.1185	-15.8043	82.582	7.2892	194.6212	-0.0592	0.0182	-0.0073	-0.0462	0.0165	0.9585
53.8739	-26.3074	531.8599	30.6363	-208.5649	-41.0876	540.4653	11.2424	231.3071	-13.8143	75.1593	6.1144	176.6293	-0.0592	0.0182	-0.0073	-0.0462	0.0165	0.9585
53.8926	-25.5728	550.8706	31.7926	-215.6134	-41.8025	558.5533	10.9625	210.5069	-12.0154	68.429	5.0354	160.2857	-0.0592	0.0182	-0.0073	-0.0462	0.0165	0.9585
53.9114	-24.7431	569.5515	33.2702	-222.4821	-42.7543	575.8988	10.7145	191.2125	-10.4825	62.2001	4.1361	145.2126	-0.0592	0.0182	-0.0073	-0.0462	0.0165	0.9585
53.9302	-23.846	587.9148	35.1078	-229.1867	-43.9953	592.5053	10.3765	172.8009	-9.2603	56.2491	3.4789	130.9388	-0.0592	0.0182	-0.0073	-0.0462	0.0165	0.9585
53.949	-22.8839	606.0241	37.2817	-235.7707	-45.5066	608.4353	9.843	154.681	-8.3434	50.3692	3.0876	117.0099	-0.0592	0.0182	-0.0073	-0.0462	0.0165	0.9585
53.9678	-21.8315	623.9251	39.7187	-242.281	-47.2117	623.7278	9.0435	136.4342	-7.6834	44.4187	2.9471	103.0943	-0.0592	0.0182	-0.0073	-0.0462	0.0165	0.9585
53.9866	-20.6395	641.6189	42.2933	-248.758	-48.9751	638.3752	7.9578	117.9377	-7.2049	38.3607	3.0068	89.0774	-0.0592	0.0182	-0.0073	-0.0462	0.0165	0.9585
54.0054	-19.248	659.0321	44.8326	-255.223	-50.6138	652.3019	6.6162	99.3927	-6.8072	32.2706	3.1797	75.0833	-0.0592	0.0182	-0.0073	-0.0462	0.0165	0.9585
54.0241	-17.6022	676.0184	47.1489	-261.6705	-51.9323	665.3725	5.0884	81.2598	-6.38	26.313	3.3609	61.4376	-0.0592	0.0182	-0.0073	-0.0462	0.0165	0.9585
54.0429	-15.6847	692.4269	49.0881	-268.078	-52.7805	677.4637	3.4738	64.1264	-5.8334	20.6941	3.4562	48.5648	-0.0592	0.0182	-0.0073	-0.0462	0.0165	0.9585
54.0617	-13.5648	708.1851	50.5716	-274.4258	-53.1068	688.5618	1.9026	48.5652	-5.1224	15.6115	3.3985	36.8865	-0.0592	0.0182	-0.0073	-0.0462	0.0165	0.9585
54.0805	-11.417	723.3925	51.6193	-280.7283	-52.9839	698.8605	0.53274	35.0163	-4.2586	11.2111	3.1554	26.7276	-0.0592	0.0182	-0.0073	-0.0462	0.0165	0.9585
54.0993	-9.4983	738.4346	52.3443	-287.0846	-52.5981	708.8586	-0.48734	23.7435	-3.3035	7.5729	2.7345	18.2861	-0.0592	0.0182	-0.0073	-0.0462	0.0165	0.9585
54.1181	-8.0894	753.9998	52.9195	-293.698	-52.2028	719.3461	-1.0663	14.8584	-2.3468	4.7241	2.1796	11.6467	-0.0592	0.0182	-0.0073	-0.0462	0.0165	0.9585
54.1369	-7.3951	770.9027	53.5326	-300.8222	-52.0425	731.1803	-1.2195	8.3348	-1.4842	2.6468	1.5684	6.7841	-0.0592	0.0182	-0.0073	-0.0462	0.0165	0.9585
54.1556	-7.4521	789.8143	54.3311	-308.6684	-52.268	744.9987	-1.0979	3.9899	-0.78929	1.2743	1.0015	3.5585	-0.0592	0.0182	-0.0073	-0.0462	0.0165	0.9585
54.1744	-8.1194	810.9079	55.3896	-317.2718	-52.9012	760.9007	-0.84519	1.4463	-0.28386	0.48026	0.5372	1.6915	-0.0592	0.0182	-0.0073	-0.0462	0.0165	0.9585
54.1932	-9.1068	833.4868	56.7122	-326.342	-53.8446	778.1357	-0.55665	0.2405	0.047047	0.11332	0.19417	0.82923	-0.0592	0.0182	-0.0073	-0.0462	0.0165	0.9585
54.212	-10.0474	855.7273	58.2538	-335.1576	-54.9332	794.9157	-0.2922	-0.083202	0.23647	0.025842	-0.033585	0.62158	-0.0592	0.0182	-0.0073	-0.0462	0.0165	0.9585
54.2308	-10.5934	874.7661	59.9167	-342.6013	-55.9665	808.5552	-0.083395	0.078002	0.32299	0.09022	-0.16679	0.7659	-0.0592	0.0182	-0.0073	-0.0462	0.0165	0.9585
